<svg xmlns="http://www.w3.org/2000/svg" width="20.469" height="15.92" viewBox="0 0 20.469 15.92">
  <path id="Icon_awesome-address-card" data-name="Icon awesome-address-card" d="M18.763,2.25H1.706A1.706,1.706,0,0,0,0,3.956V16.465A1.706,1.706,0,0,0,1.706,18.17H18.763a1.706,1.706,0,0,0,1.706-1.706V3.956A1.706,1.706,0,0,0,18.763,2.25ZM6.254,5.662A2.274,2.274,0,1,1,3.98,7.936,2.276,2.276,0,0,1,6.254,5.662Zm3.98,8.415a.745.745,0,0,1-.8.682H3.07a.745.745,0,0,1-.8-.682v-.682a2.238,2.238,0,0,1,2.388-2.047H4.84a3.66,3.66,0,0,0,2.829,0h.178a2.238,2.238,0,0,1,2.388,2.047Zm7.96-1.876a.285.285,0,0,1-.284.284H12.793a.285.285,0,0,1-.284-.284v-.569a.285.285,0,0,1,.284-.284H17.91a.285.285,0,0,1,.284.284Zm0-2.274a.285.285,0,0,1-.284.284H12.793a.285.285,0,0,1-.284-.284V9.357a.285.285,0,0,1,.284-.284H17.91a.285.285,0,0,1,.284.284Zm0-2.274a.285.285,0,0,1-.284.284H12.793a.285.285,0,0,1-.284-.284V7.083a.285.285,0,0,1,.284-.284H17.91a.285.285,0,0,1,.284.284Z" transform="translate(0 -2.25)" fill="#979797"/>
</svg>
