<?xml version="1.0"?>
<svg xmlns="http://www.w3.org/2000/svg" xmlns:xlink="http://www.w3.org/1999/xlink" version="1.1" id="Capa_1" x="0px" y="0px" viewBox="0 0 429.653 429.653" style="enable-background:new 0 0 429.653 429.653;" xml:space="preserve" width="512px" height="512px"><g><g>
	<g>
		<g>
			<polygon points="126.933,32.64 99.52,0 1.493,82.24 28.907,114.88    " data-original="#000000" class="active-path" data-old_color="#000000" fill="#A4A4A4"/>
			<polygon points="428.16,82.347 330.133,0.107 302.72,32.747 400.747,114.987    " data-original="#000000" class="active-path" data-old_color="#000000" fill="#A4A4A4"/>
			<path d="M214.72,45.653c-106.133,0-191.893,85.973-191.893,192s85.76,192,191.893,192s192.107-85.973,192.107-192     S320.853,45.653,214.72,45.653z M214.827,386.987c-82.453,0-149.333-66.88-149.333-149.333S132.373,88.32,214.827,88.32     S364.16,155.2,364.16,237.653S297.387,386.987,214.827,386.987z" data-original="#000000" class="active-path" data-old_color="#000000" fill="#A4A4A4"/>
			<polygon points="225.493,130.987 193.493,130.987 193.493,258.987 294.72,319.893 310.827,293.547 225.493,242.987    " data-original="#000000" class="active-path" data-old_color="#000000" fill="#A4A4A4"/>
		</g>
	</g>
</g></g> </svg>
