<svg xmlns="http://www.w3.org/2000/svg" width="16.53" height="18.892" viewBox="0 0 16.53 18.892">
  <path id="Icon_awesome-building" data-name="Icon awesome-building" d="M16.087,17.711H15.35V.886A.886.886,0,0,0,14.464,0H2.066a.886.886,0,0,0-.886.886V17.711H.443A.443.443,0,0,0,0,18.154v.738H16.53v-.738A.443.443,0,0,0,16.087,17.711ZM4.723,2.8a.443.443,0,0,1,.443-.443H6.642a.443.443,0,0,1,.443.443V4.28a.443.443,0,0,1-.443.443H5.166a.443.443,0,0,1-.443-.443Zm0,3.542A.443.443,0,0,1,5.166,5.9H6.642a.443.443,0,0,1,.443.443V7.822a.443.443,0,0,1-.443.443H5.166a.443.443,0,0,1-.443-.443Zm1.919,5.461H5.166a.443.443,0,0,1-.443-.443V9.889a.443.443,0,0,1,.443-.443H6.642a.443.443,0,0,1,.443.443v1.476A.443.443,0,0,1,6.642,11.807Zm2.8,5.9H7.084v-3.1a.443.443,0,0,1,.443-.443H9a.443.443,0,0,1,.443.443Zm2.361-6.346a.443.443,0,0,1-.443.443H9.889a.443.443,0,0,1-.443-.443V9.889a.443.443,0,0,1,.443-.443h1.476a.443.443,0,0,1,.443.443Zm0-3.542a.443.443,0,0,1-.443.443H9.889a.443.443,0,0,1-.443-.443V6.346A.443.443,0,0,1,9.889,5.9h1.476a.443.443,0,0,1,.443.443Zm0-3.542a.443.443,0,0,1-.443.443H9.889a.443.443,0,0,1-.443-.443V2.8a.443.443,0,0,1,.443-.443h1.476a.443.443,0,0,1,.443.443Z" fill="#979797"/>
</svg>
