<svg id="dashboard" xmlns="http://www.w3.org/2000/svg" width="30.101" height="30.101" viewBox="0 0 30.101 30.101">
  <path id="Path_4" data-name="Path 4" d="M11.6,0H2.195A2.2,2.2,0,0,0,0,2.195V7.839a2.2,2.2,0,0,0,2.195,2.2H11.6a2.2,2.2,0,0,0,2.2-2.2V2.195A2.2,2.2,0,0,0,11.6,0Zm0,0" fill="#fff"/>
  <path id="Path_5" data-name="Path 5" d="M11.6,213.332H2.195A2.2,2.2,0,0,0,0,215.527V228.7a2.2,2.2,0,0,0,2.195,2.195H11.6a2.2,2.2,0,0,0,2.2-2.195V215.527A2.2,2.2,0,0,0,11.6,213.332Zm0,0" transform="translate(0 -200.79)" fill="#fff"/>
  <path id="Path_6" data-name="Path 6" d="M288.934,341.332h-9.407a2.2,2.2,0,0,0-2.2,2.2v5.644a2.2,2.2,0,0,0,2.2,2.195h9.407a2.2,2.2,0,0,0,2.195-2.195v-5.644A2.2,2.2,0,0,0,288.934,341.332Zm0,0" transform="translate(-261.027 -321.265)" fill="#fff"/>
  <path id="Path_7" data-name="Path 7" d="M288.934,0h-9.407a2.2,2.2,0,0,0-2.2,2.195V15.364a2.2,2.2,0,0,0,2.2,2.2h9.407a2.2,2.2,0,0,0,2.195-2.2V2.195A2.2,2.2,0,0,0,288.934,0Zm0,0" transform="translate(-261.027)" fill="#fff"/>
</svg>
