<svg xmlns="http://www.w3.org/2000/svg" width="34" height="34" viewBox="0 0 34 34">
  <g id="Group_329" data-name="Group 329" transform="translate(-1640 -317)">
    <circle id="Ellipse_382" data-name="Ellipse 382" cx="17" cy="17" r="17" transform="translate(1640 317)" fill="#41bea0" opacity="0.7"/>
    <g id="bill_1_" data-name="bill (1)" transform="translate(1650 326.605)">
      <path id="Path_133" data-name="Path 133" d="M124.437,282.374a.339.339,0,1,0-.338.312A.325.325,0,0,0,124.437,282.374Zm0,0" transform="translate(-119.824 -272.703)" fill="#fff"/>
      <path id="Path_134" data-name="Path 134" d="M124.1,212.527a.313.313,0,1,0,.338.312A.326.326,0,0,0,124.1,212.527Zm0,0" transform="translate(-119.823 -205.381)" fill="#fff"/>
      <path id="Path_135" data-name="Path 135" d="M124.437,143.3a.339.339,0,1,0-.338.312A.325.325,0,0,0,124.437,143.3Zm0,0" transform="translate(-119.824 -138.059)" fill="#fff"/>
      <path id="Path_136" data-name="Path 136" d="M269.766.395A3.137,3.137,0,1,0,272.9,3.532,3.137,3.137,0,0,0,269.766.395Zm-.015,2.913a1.046,1.046,0,0,1,.2,2.073v.293a.223.223,0,0,1-.446,0v-.3a1.048,1.048,0,0,1-.8-1.016.223.223,0,1,1,.446,0,.6.6,0,1,0,.6-.6,1.046,1.046,0,0,1-.247-2.063V1.409a.223.223,0,0,1,.446,0V1.68a1.048,1.048,0,0,1,.847,1.027.223.223,0,1,1-.446,0,.6.6,0,0,0-.591-.6l-.034,0h-.021a.6.6,0,0,0,.045,1.2Zm0,0" transform="translate(-258.144)" fill="#fff"/>
      <path id="Path_137" data-name="Path 137" d="M8.027,366.57a1.966,1.966,0,0,1-.58-1.393v-.893H0v.9A1.529,1.529,0,0,0,1.527,366.7H8.178a1.007,1.007,0,0,1-.151-.134Zm0,0" transform="translate(0 -352.309)" fill="#fff"/>
      <path id="Path_138" data-name="Path 138" d="M71.347,77.958h-2.7a.223.223,0,0,1,0-.446H71.1a3.529,3.529,0,0,1-.325-1.489,3.7,3.7,0,0,1,.077-.739h-6L64.8,84.037H70.42a.2.2,0,0,1,.211.211v1.127A1.534,1.534,0,0,0,72.162,86.9h0a1.523,1.523,0,0,0,1.519-1.523V79.558a3.533,3.533,0,0,1-2.339-1.6Zm-4.333,4.977a.758.758,0,1,1,.783-.757A.771.771,0,0,1,67.014,82.935Zm0-2.213a.758.758,0,1,1,.783-.757A.771.771,0,0,1,67.014,80.722Zm0-2.213a.758.758,0,1,1,.783-.757A.771.771,0,0,1,67.014,78.509Zm5.029,3.905H68.649a.223.223,0,1,1,0-.446h3.394a.223.223,0,0,1,0,.446Zm.223-2.451a.223.223,0,0,1-.223.223H68.649a.223.223,0,1,1,0-.446h3.394A.223.223,0,0,1,72.266,79.963Zm0,0" transform="translate(-62.739 -72.507)" fill="#fff"/>
    </g>
  </g>
</svg>
