<svg id="bill_1_" data-name="bill (1)" xmlns="http://www.w3.org/2000/svg" width="30" height="29.454" viewBox="0 0 30 29.454">
  <path id="Path_133" data-name="Path 133" d="M125.134,282.7a.688.688,0,1,0-.686.633A.661.661,0,0,0,125.134,282.7Zm0,0" transform="translate(-115.756 -263.172)" fill="#fff"/>
  <path id="Path_134" data-name="Path 134" d="M124.447,212.527a.635.635,0,1,0,.686.633A.662.662,0,0,0,124.447,212.527Zm0,0" transform="translate(-115.756 -198.3)" fill="#fff"/>
  <path id="Path_135" data-name="Path 135" d="M125.134,143.625a.688.688,0,1,0-.686.633A.661.661,0,0,0,125.134,143.625Zm0,0" transform="translate(-115.756 -133.429)" fill="#fff"/>
  <path id="Path_136" data-name="Path 136" d="M273.005.395a6.377,6.377,0,1,0,6.377,6.377A6.376,6.376,0,0,0,273.005.395Zm-.03,5.921a2.126,2.126,0,0,1,.4,4.214v.6a.453.453,0,0,1-.906,0v-.618a2.129,2.129,0,0,1-1.625-2.066.453.453,0,1,1,.906,0,1.221,1.221,0,1,0,1.221-1.221,2.126,2.126,0,0,1-.5-4.192V2.457a.453.453,0,0,1,.906,0v.55A2.13,2.13,0,0,1,275.1,5.095a.453.453,0,1,1-.906,0,1.221,1.221,0,0,0-1.2-1.22.439.439,0,0,1-.068.006l-.042,0a1.22,1.22,0,0,0,.091,2.437Zm0,0" transform="translate(-249.382 -0.395)" fill="#fff"/>
  <path id="Path_137" data-name="Path 137" d="M16.315,368.93a4,4,0,0,1-1.179-2.83v-1.814H0v1.822A3.109,3.109,0,0,0,3.1,369.2H16.621a2.051,2.051,0,0,1-.306-.272Zm0,0" transform="translate(0.001 -339.747)" fill="#fff"/>
  <path id="Path_138" data-name="Path 138" d="M78.106,80.718H72.622a.453.453,0,1,1,0-.906H77.61a7.173,7.173,0,0,1-.66-3.026,7.519,7.519,0,0,1,.156-1.5H64.92L64.8,93.073H76.221a.413.413,0,0,1,.43.429v2.291a3.117,3.117,0,0,0,3.111,3.1h.01A3.094,3.094,0,0,0,82.86,95.8V83.97a7.18,7.18,0,0,1-4.754-3.252ZM69.3,90.833a1.54,1.54,0,1,1,1.592-1.539A1.568,1.568,0,0,1,69.3,90.833Zm0-4.5A1.54,1.54,0,1,1,70.892,84.8,1.568,1.568,0,0,1,69.3,86.335Zm0-4.5A1.54,1.54,0,1,1,70.892,80.3,1.568,1.568,0,0,1,69.3,81.837Zm10.221,7.937h-6.9a.453.453,0,1,1,0-.906h6.9a.453.453,0,1,1,0,.906Zm.453-4.981a.453.453,0,0,1-.453.453h-6.9a.453.453,0,1,1,0-.906h6.9A.453.453,0,0,1,79.974,84.793Zm0,0" transform="translate(-60.609 -69.441)" fill="#fff"/>
</svg>
