<svg xmlns="http://www.w3.org/2000/svg" width="26.501" height="35.334" viewBox="0 0 26.501 35.334">
  <g id="invoice" transform="translate(-64)">
    <g id="Group_288" data-name="Group 288" transform="translate(64)">
      <path id="Path_119" data-name="Path 119" d="M90.284,7.576,82.925.217A.734.734,0,0,0,82.4,0H66.945A2.948,2.948,0,0,0,64,2.945V32.39a2.948,2.948,0,0,0,2.945,2.944H87.556A2.948,2.948,0,0,0,90.5,32.39V8.1A.734.734,0,0,0,90.284,7.576Zm-19.659,2.73a2.2,2.2,0,0,1-.736-4.281V5.889a.736.736,0,0,1,1.472,0H72.1a.736.736,0,0,1,0,1.472H70.625a.736.736,0,1,0,0,1.472,2.2,2.2,0,0,1,.736,4.281v.136a.736.736,0,0,1-1.472,0h-.736a.736.736,0,0,1,0-1.472h1.472a.736.736,0,1,0,0-1.472Zm7.361,20.612H69.153a.736.736,0,1,1,0-1.472h8.834a.736.736,0,0,1,0,1.472ZM85.348,26.5H69.153a.736.736,0,1,1,0-1.472H85.348a.736.736,0,1,1,0,1.472Zm0-4.417H69.153a.736.736,0,1,1,0-1.472H85.348a.736.736,0,1,1,0,1.472Zm0-4.417H69.153a.736.736,0,1,1,0-1.472H85.348a.736.736,0,1,1,0,1.472Zm0-4.417H76.514a.736.736,0,1,1,0-1.472h8.834a.736.736,0,1,1,0,1.472Zm-.736-5.889A1.474,1.474,0,0,1,83.14,5.889V2.513l4.848,4.848Z" transform="translate(-64)" fill="#fff"/>
    </g>
  </g>
</svg>
