<?xml version="1.0"?>
<svg xmlns="http://www.w3.org/2000/svg" xmlns:xlink="http://www.w3.org/1999/xlink" version="1.1" id="Capa_1" x="0px" y="0px" viewBox="0 0 512 512" style="enable-background:new 0 0 512 512;" xml:space="preserve" width="512px" height="512px"><g><g>
	<g>
		<path d="M245.572,327.297c-3.029-2.825-7.775-2.661-10.601,0.366c-7.341,7.866-14.734-0.891-29.66-1.251    c2.128-4.589,3.276-9.29,3.433-13.955h8.435c4.143,0,7.5-3.357,7.5-7.5s-3.357-7.5-7.5-7.5h-11.579    c-6.329-13.392-2.506-23.88,8.956-23.88c7.613,0,11.974,2.786,12.958,8.281c0.73,4.076,4.624,6.79,8.706,6.061    c4.077-0.73,6.791-4.628,6.061-8.706c-4.317-24.103-39.068-27.611-50.707-8.529c-4.592,7.528-5.326,17.372-2.241,26.772h-3.889    c-4.143,0-7.5,3.357-7.5,7.5s3.357,7.5,7.5,7.5h8.268c-0.533,8.363-6.848,15.403-10.226,18.593    c-5.864,5.538,0.094,15.289,7.757,12.485c0.116-0.043,11.713-4.212,21.297-0.85c12.831,4.502,24.048,5.231,33.397-4.786    C248.765,334.871,248.601,330.124,245.572,327.297z" data-original="#000000" class="active-path" data-old_color="#000000" fill="#A4A4A4"/>
	</g>
</g><g>
	<g>
		<path d="M490.148,78.091h-49.775c-4.143,0-7.5,3.357-7.5,7.5s3.357,7.5,7.5,7.5h49.775c3.777,0,6.85,3.073,6.85,6.852v220.632    c0,3.777-3.073,6.85-6.85,6.85h-21.199V145.686c0-12.05-9.803-21.853-21.851-21.853H101.103V99.944    c0-3.778,3.072-6.852,6.85-6.852h305.418c4.143,0,7.5-3.357,7.5-7.5c0-4.143-3.357-7.5-7.5-7.5H107.953    c-12.049,0-21.851,9.804-21.851,21.853v23.888h-21.2c-12.05,0-21.852,9.804-21.852,21.853v23.888H21.852    C9.803,169.573,0,179.377,0,191.426v220.632c0,12.049,9.803,21.851,21.852,21.851h382.194c12.05,0,21.852-9.803,21.852-21.851    v-23.89h21.199c12.049,0,21.851-9.803,21.851-21.851v-23.89h21.199c12.05,0,21.851-9.803,21.851-21.851V99.944    C512,87.894,502.197,78.091,490.148,78.091z M410.897,412.058c0,3.777-3.073,6.85-6.851,6.85H21.852    c-3.777,0-6.851-3.072-6.851-6.85V191.426c0-3.778,3.073-6.852,6.851-6.852c7.692,0,366.372,0,382.194,0    c3.777,0,6.851,3.073,6.851,6.852C410.897,202.919,410.897,402.424,410.897,412.058z M453.948,366.316    c0,3.777-3.072,6.85-6.85,6.85h-21.199V191.426c0-12.05-9.803-21.853-21.852-21.853H58.051v-23.888    c0-3.778,3.073-6.852,6.851-6.852c7.692,0,366.372,0,382.195,0c3.777,0,6.85,3.073,6.85,6.852    C453.948,157.178,453.948,356.683,453.948,366.316z" data-original="#000000" class="active-path" data-old_color="#000000" fill="#A4A4A4"/>
	</g>
</g><g>
	<g>
		<path d="M282.559,253.452c-2.377-3.389-7.055-4.211-10.448-1.83c-3.391,2.379-4.21,7.057-1.83,10.448    c32.415,46.191-0.815,110.146-57.331,110.146c-38.592,0-69.988-31.398-69.988-69.99c0-57.047,64.977-90.098,111.032-56.697    c3.35,2.431,8.043,1.685,10.476-1.668c2.432-3.354,1.684-8.043-1.668-10.476c-14.567-10.564-31.805-16.148-49.851-16.148    c-46.863,0-84.989,38.126-84.989,84.989c0,46.864,38.126,84.991,84.989,84.991C281.628,387.217,321.906,309.514,282.559,253.452z" data-original="#000000" class="active-path" data-old_color="#000000" fill="#A4A4A4"/>
	</g>
</g><g>
	<g>
		<path d="M379.895,205.72h-70.004c-4.143,0-7.5,3.357-7.5,7.5s3.357,7.5,7.5,7.5h70.004c4.142,0,7.5-3.357,7.5-7.5    S384.039,205.72,379.895,205.72z" data-original="#000000" class="active-path" data-old_color="#000000" fill="#A4A4A4"/>
	</g>
</g><g>
	<g>
		<path d="M116.007,383.731H46.003c-4.143,0-7.5,3.357-7.5,7.5c0,4.142,3.357,7.5,7.5,7.5h70.004c4.143,0,7.5-3.358,7.5-7.5    C123.507,387.088,120.15,383.731,116.007,383.731z" data-original="#000000" class="active-path" data-old_color="#000000" fill="#A4A4A4"/>
	</g>
</g></g> </svg>
