<?xml version="1.0"?>
<svg xmlns="http://www.w3.org/2000/svg" height="512px" viewBox="-18 0 512 512" width="512px"><g><path d="m476.699219 158.898438c0-57.957032-115.46875-88.277344-229.523438-88.277344-114.054687 0-229.523437 30.320312-229.523437 88.277344 0 3.703124.5 7.285156 1.410156 10.761718-.902344 2.121094-1.410156 4.453125-1.410156 6.902344v70.613281c0 3.699219.496094 7.28125 1.410156 10.753907-.902344 2.121093-1.410156 4.453124-1.410156 6.902343v70.613281c0 3.699219.496094 7.28125 1.410156 10.753907-.902344 2.121093-1.410156 4.449219-1.410156 6.902343v70.621094c0 57.957032 115.46875 88.277344 229.523437 88.277344 114.054688 0 229.523438-30.320312 229.523438-88.277344v-70.621094c0-2.453124-.507813-4.78125-1.410157-6.902343.910157-3.472657 1.410157-7.054688 1.410157-10.753907v-70.613281c0-2.449219-.507813-4.78125-1.410157-6.902343.910157-3.472657 1.410157-7.054688 1.410157-10.753907v-70.613281c0-2.453125-.507813-4.78125-1.410157-6.902344.910157-3.476562 1.410157-7.058594 1.410157-10.761718zm-35.3125 176.546874c0 17.976563-68.550781 52.96875-194.210938 52.96875-125.660156 0-194.210937-34.992187-194.210937-52.96875v-39.132812c42.84375 25.785156 118.730468 39.144531 194.214844 39.144531 75.480468 0 151.367187-13.363281 194.210937-39.144531v39.132812zm0-88.265624c0 17.972656-68.550781 52.964843-194.210938 52.964843-125.660156 0-194.210937-34.992187-194.210937-52.964843v-39.144532c42.84375 25.785156 118.730468 39.144532 194.214844 39.144532 75.480468 0 151.367187-13.363282 194.210937-39.144532v39.144532zm-194.207031-141.246094c125.65625 0 194.210937 34.992187 194.210937 52.964844 0 17.976562-68.554687 52.96875-194.210937 52.96875-125.660157 0-194.214844-34.992188-194.214844-52.96875 0-17.972657 68.554687-52.964844 194.214844-52.964844zm0 370.757812c-125.660157 0-194.214844-34.992187-194.214844-52.96875v-39.140625c42.84375 25.785157 118.730468 39.140625 194.214844 39.140625 75.480468 0 151.367187-13.359375 194.210937-39.140625v39.140625c-.003906 17.976563-68.554687 52.96875-194.210937 52.96875zm0 0" data-original="#000000" class="active-path" data-old_color="#000000" fill="#A4A4A4"/><path d="m35.3125 10.339844 35.308594-10.339844-10.339844 35.3125 10.339844 35.308594-35.308594-10.339844-35.3125 10.339844 10.339844-35.308594-10.339844-35.3125zm0 0" data-original="#000000" class="active-path" data-old_color="#000000" fill="#A4A4A4"/><path d="m247.179688 133.929688 35.308593-10.339844-10.34375 35.308594 10.34375 35.3125-35.308593-10.339844-35.3125 10.339844 10.339843-35.3125-10.339843-35.308594zm0 0" data-original="#000000" class="active-path" data-old_color="#000000" fill="#A4A4A4"/></g> </svg>
